<?xml version="1.0" encoding="utf-8"?>
<!-- Generator: Adobe Illustrator 14.0.0, SVG Export Plug-In . SVG Version: 6.00 Build 43363)  -->
<!DOCTYPE svg PUBLIC "-//W3C//DTD SVG 1.1//EN" "http://www.w3.org/Graphics/SVG/1.1/DTD/svg11.dtd">
<svg version="1.1" id="Layer_1" xmlns="http://www.w3.org/2000/svg" xmlns:xlink="http://www.w3.org/1999/xlink" x="0px" y="0px"
	 width="177.581px" height="32.883px" viewBox="0 0 177.581 32.883" enable-background="new 0 0 177.581 32.883"
	 xml:space="preserve">
<g>
	<defs>
		<rect id="SVGID_1_" x="-532.303" y="94.383" width="1440" height="1800"/>
	</defs>
	<clipPath id="SVGID_2_">
		<use xlink:href="#SVGID_1_"  overflow="visible"/>
	</clipPath>
	<rect x="-532.303" y="94.383" clip-path="url(#SVGID_2_)" fill="#F4F4F4" width="1440" height="1800"/>
	<g clip-path="url(#SVGID_2_)">
		<defs>
			<rect id="SVGID_3_" x="-532.303" y="94.383" width="1440" height="1800"/>
		</defs>
		<clipPath id="SVGID_4_">
			<use xlink:href="#SVGID_3_"  overflow="visible"/>
		</clipPath>
		<path clip-path="url(#SVGID_4_)" fill="#FFFFFF" d="M677.697,1799.383c0,2.75-2.25,5-5,5h-970c-2.75,0-5-2.25-5-5v-1601
			c0-2.75,2.25-5,5-5h970c2.75,0,5,2.25,5,5V1799.383z"/>
	</g>
	<g clip-path="url(#SVGID_2_)">
		<text transform="matrix(1 0 0 1 -52.3804 273.7285)"><tspan x="0" y="0" fill="#393939" font-family="'ProximaNova-Light'" font-size="32">REA</tspan><tspan x="57.759" y="0" fill="#393939" font-family="'ProximaNova-Light'" font-size="32" letter-spacing="-1">D</tspan><tspan x="78.623" y="0" fill="#393939" font-family="'ProximaNova-Light'" font-size="32">Y </tspan><tspan x="106.687" y="0" fill="#393939" font-family="'ProximaNova-Light'" font-size="32">T</tspan><tspan x="123.806" y="0" fill="#393939" font-family="'ProximaNova-Light'" font-size="32">O </tspan><tspan x="156.542" y="0" fill="#393939" font-family="'ProximaNova-Light'" font-size="32" letter-spacing="-2">T</tspan><tspan x="172.381" y="0" fill="#393939" font-family="'ProximaNova-Light'" font-size="32">AKE THE NEXT </tspan><tspan x="392.442" y="0" fill="#393939" font-family="'ProximaNova-Light'" font-size="32">S</tspan><tspan x="410.97" y="0" fill="#393939" font-family="'ProximaNova-Light'" font-size="32">TEP?</tspan></text>
	</g>
	<g clip-path="url(#SVGID_2_)">
		<text transform="matrix(1 0 0 1 -194.1611 365.1279)"><tspan x="0" y="0" fill="#393939" font-family="'ProximaNova-Semibold'" font-size="24">Free 30 Day </tspan><tspan x="137.733" y="0" fill="#393939" font-family="'ProximaNova-Semibold'" font-size="24" letter-spacing="-1">T</tspan><tspan x="149.805" y="0" fill="#393939" font-family="'ProximaNova-Semibold'" font-size="24">rial</tspan></text>
	</g>
	<g clip-path="url(#SVGID_2_)">
		<text transform="matrix(1 0 0 1 -194.1616 337.1279)" fill="#393939" font-family="'ProximaNova-Regular'" font-size="16">CURRENT PLAN:</text>
	</g>
	<g clip-path="url(#SVGID_2_)">
		<defs>
			<rect id="SVGID_5_" x="-532.303" y="94.383" width="1440" height="1800"/>
		</defs>
		<clipPath id="SVGID_6_">
			<use xlink:href="#SVGID_5_"  overflow="visible"/>
		</clipPath>
		
			<line clip-path="url(#SVGID_6_)" fill="none" stroke="#EDEDED" stroke-miterlimit="10" x1="-194.162" y1="415.331" x2="571.697" y2="414.331"/>
		
			<line clip-path="url(#SVGID_6_)" fill="none" stroke="#EDEDED" stroke-miterlimit="10" x1="-194.162" y1="304.331" x2="571.697" y2="303.331"/>
	</g>
	<g clip-path="url(#SVGID_2_)">
		<text transform="matrix(1 0 0 1 -194.1611 392.3311)"><tspan x="0" y="0" fill="#393939" font-family="'ProximaNova-Regular'" font-size="18" letter-spacing="-2">Y</tspan><tspan x="9" y="0" fill="#393939" font-family="'ProximaNova-Regular'" font-size="18">ou have: </tspan></text>
	</g>
	<g clip-path="url(#SVGID_2_)">
		<text transform="matrix(1 0 0 1 -113.1968 392.3311)" fill="#393939" font-family="'ProximaNova-Bold'" font-size="18">13 days left</text>
	</g>
	<g clip-path="url(#SVGID_2_)">
		<text transform="matrix(1 0 0 1 319.7866 371.1719)"><tspan x="0" y="0" fill="#888888" font-family="'ProximaNova-Regular'" font-size="14" letter-spacing="-1">Y</tspan><tspan x="7" y="0" fill="#888888" font-family="'ProximaNova-Regular'" font-size="14">our team currently contains</tspan></text>
	</g>
	<g clip-path="url(#SVGID_2_)">
		<text transform="matrix(1 0 0 1 493.9048 371.1719)" fill="#FF0066" font-family="'ProximaNova-Regular'" font-size="14"> 12 members</text>
	</g>
	<g clip-path="url(#SVGID_2_)">
		<text transform="matrix(1 0 0 1 339.3159 391.1777)"><tspan x="0" y="0" fill="#888888" font-family="'ProximaNova-Regular'" font-size="14">W</tspan><tspan x="11.816" y="0" fill="#888888" font-family="'ProximaNova-Regular'" font-size="14">ant to manage your team member</tspan><tspan x="220.021" y="0" fill="#888888" font-family="'ProximaNova-Regular'" font-size="14">s</tspan><tspan x="225.929" y="0" fill="#888888" font-family="'ProximaNova-Regular'" font-size="14">?</tspan></text>
	</g>
	<g clip-path="url(#SVGID_2_)">
		<text transform="matrix(1 0 0 1 -156.4565 473.1279)"><tspan x="0" y="0" fill="#393939" font-family="'ProximaNova-Regular'" font-size="24">Choose a plan that works best for your needs and your team siz</tspan><tspan x="669.419" y="0" fill="#393939" font-family="'ProximaNova-Regular'" font-size="24">e</tspan><tspan x="682.787" y="0" fill="#393939" font-family="'ProximaNova-Regular'" font-size="24">.</tspan></text>
	</g>
	<g clip-path="url(#SVGID_2_)">
		<text transform="matrix(1 0 0 1 26.3516 503.1279)" fill="#393939" font-family="'ProximaNova-Regular'" font-size="24">And leave some room to grow!</text>
	</g>
	<g clip-path="url(#SVGID_2_)">
		<defs>
			<rect id="SVGID_7_" x="-532.303" y="94.383" width="1440" height="1800"/>
		</defs>
		<clipPath id="SVGID_8_">
			<use xlink:href="#SVGID_7_"  overflow="visible"/>
		</clipPath>
		<rect x="12.697" y="547.331" clip-path="url(#SVGID_8_)" fill="#393939" width="350" height="374"/>
		<path clip-path="url(#SVGID_8_)" fill="#393939" d="M640.697,909.331h-906v-336h906V909.331z M642.697,571.331h-910v340h910
			V571.331z"/>
		<path clip-path="url(#SVGID_8_)" fill="#FF0066" d="M292.697,876.331c0,2.75-2.25,5-5,5h-200c-2.75,0-5-2.25-5-5v-24
			c0-2.75,2.25-5,5-5h200c2.75,0,5,2.25,5,5V876.331z"/>
		<path clip-path="url(#SVGID_8_)" fill="#393939" d="M-22.303,876.331c0,2.75-2.25,5-5,5h-200c-2.75,0-5-2.25-5-5v-24
			c0-2.75,2.25-5,5-5h200c2.75,0,5,2.25,5,5V876.331z"/>
		<path clip-path="url(#SVGID_8_)" fill="#393939" d="M607.697,876.331c0,2.75-2.25,5-5,5h-200c-2.75,0-5-2.25-5-5v-24
			c0-2.75,2.25-5,5-5h200c2.75,0,5,2.25,5,5V876.331z"/>
	</g>
	<g clip-path="url(#SVGID_2_)">
		<text transform="matrix(1 0 0 1 -179.2544 625.1279)"><tspan x="0" y="0" fill="#393939" font-family="'ProximaNova-Semibold'" font-size="32">S</tspan><tspan x="18.528" y="0" fill="#393939" font-family="'ProximaNova-Semibold'" font-size="32">tartup</tspan></text>
	</g>
	<g clip-path="url(#SVGID_2_)">
		<text transform="matrix(1 0 0 1 -136.9185 696.1357)" fill="#393939" font-family="'ProximaNova-Semibold'" font-size="32">5</text>
	</g>
	<g clip-path="url(#SVGID_2_)">
		<text transform="matrix(1 0 0 1 -146.2954 713.1289)" fill="#393939" font-family="'ProximaNova-Regular'" font-size="16">users</text>
	</g>
	<g clip-path="url(#SVGID_2_)">
		<text transform="matrix(1 0 0 1 118.5298 625.1279)" fill="#FFFFFF" font-family="'ProximaNova-Semibold'" font-size="32">Business</text>
	</g>
	<g clip-path="url(#SVGID_2_)">
		<text transform="matrix(1 0 0 1 448.1118 871.1279)"><tspan x="0" y="0" fill="#FFFFFF" font-family="'ProximaNova-Regular'" font-size="18">CON</tspan><tspan x="38.682" y="0" fill="#FFFFFF" font-family="'ProximaNova-Regular'" font-size="18" letter-spacing="-1">T</tspan><tspan x="47.754" y="0" fill="#FFFFFF" font-family="'ProximaNova-Regular'" font-size="18">A</tspan><tspan x="58.949" y="0" fill="#FFFFFF" font-family="'ProximaNova-Regular'" font-size="18">CT US</tspan></text>
	</g>
	<g clip-path="url(#SVGID_2_)">
		<text transform="matrix(1 0 0 1 105.4097 871.1279)" fill="#FFFFFF" font-family="'ProximaNova-Regular'" font-size="18">CHOOSE THIS PLAN</text>
	</g>
	<g clip-path="url(#SVGID_2_)">
		<defs>
			<rect id="SVGID_9_" x="-532.303" y="94.383" width="1440" height="1800"/>
		</defs>
		<clipPath id="SVGID_10_">
			<use xlink:href="#SVGID_9_"  overflow="visible"/>
		</clipPath>
		<path clip-path="url(#SVGID_10_)" fill="#393939" d="M602.697,804.331c2.206,0,4,1.794,4,4v24c0,2.206-1.794,4-4,4h-200
			c-2.206,0-4-1.794-4-4v-24c0-2.206,1.794-4,4-4H602.697 M602.697,803.331h-200c-2.75,0-5,2.25-5,5v24c0,2.75,2.25,5,5,5h200
			c2.75,0,5-2.25,5-5v-24C607.697,805.581,605.447,803.331,602.697,803.331"/>
	</g>
	<g clip-path="url(#SVGID_2_)">
		<text transform="matrix(1 0 0 1 448.2651 827.1279)" fill="#393939" font-family="'ProximaNova-Regular'" font-size="18">LEARN MORE</text>
	</g>
	<g clip-path="url(#SVGID_2_)">
		<defs>
			<rect id="SVGID_11_" x="-532.303" y="94.383" width="1440" height="1800"/>
		</defs>
		<clipPath id="SVGID_12_">
			<use xlink:href="#SVGID_11_"  overflow="visible"/>
		</clipPath>
		<rect x="-167.304" y="732.331" clip-path="url(#SVGID_12_)" fill="#B7B7B7" width="80" height="1"/>
		<rect x="-167.304" y="651.331" clip-path="url(#SVGID_12_)" fill="#B7B7B7" width="80" height="1"/>
	</g>
	<g clip-path="url(#SVGID_2_)">
		<text transform="matrix(1 0 0 1 429.6743 625.1279)" fill="#393939" font-family="'ProximaNova-Semibold'" font-size="32">Enterprise</text>
	</g>
	<g clip-path="url(#SVGID_2_)">
		<text transform="matrix(1 0 0 1 475.5942 696.1357)" fill="#393939" font-family="'ProximaNova-Semibold'" font-size="32">30+</text>
	</g>
	<g clip-path="url(#SVGID_2_)">
		<text transform="matrix(1 0 0 1 483.7046 713.1289)" fill="#393939" font-family="'ProximaNova-Regular'" font-size="16">users</text>
	</g>
	<g clip-path="url(#SVGID_2_)">
		<defs>
			<rect id="SVGID_13_" x="-532.303" y="94.383" width="1440" height="1800"/>
		</defs>
		<clipPath id="SVGID_14_">
			<use xlink:href="#SVGID_13_"  overflow="visible"/>
		</clipPath>
		<rect x="462.697" y="732.331" clip-path="url(#SVGID_14_)" fill="#B7B7B7" width="80" height="1"/>
		<rect x="462.697" y="651.331" clip-path="url(#SVGID_14_)" fill="#B7B7B7" width="80" height="1"/>
	</g>
	<g clip-path="url(#SVGID_2_)">
		<text transform="matrix(1 0 0 1 178.0967 696.1279)" fill="#FFFFFF" font-family="'ProximaNova-Semibold'" font-size="32">5</text>
	</g>
	<g clip-path="url(#SVGID_2_)">
		<text transform="matrix(1 0 0 1 168.7046 713.1289)" fill="#FFFFFF" font-family="'ProximaNova-Regular'" font-size="16">users</text>
	</g>
	<g clip-path="url(#SVGID_2_)">
		<defs>
			<rect id="SVGID_15_" x="-532.303" y="94.383" width="1440" height="1800"/>
		</defs>
		<clipPath id="SVGID_16_">
			<use xlink:href="#SVGID_15_"  overflow="visible"/>
		</clipPath>
		<g opacity="0.5" clip-path="url(#SVGID_16_)">
			<g>
				<defs>
					<rect id="SVGID_17_" x="147.696" y="651.333" width="80" height="1"/>
				</defs>
				<clipPath id="SVGID_18_">
					<use xlink:href="#SVGID_17_"  overflow="visible"/>
				</clipPath>
				<rect x="147.696" y="651.331" clip-path="url(#SVGID_18_)" fill="#888888" width="80" height="1"/>
			</g>
		</g>
	</g>
	<g clip-path="url(#SVGID_2_)">
		<text transform="matrix(1 0 0 1 -209.5986 871.1279)" fill="#FFFFFF" font-family="'ProximaNova-Regular'" font-size="18">CHOOSE THIS PLAN</text>
	</g>
	<g clip-path="url(#SVGID_2_)">
		<text transform="matrix(1 0 0 1 200.5532 790.3311)" fill="#FFFFFF" font-family="'ProximaNova-Regular'" font-size="16">/ year</text>
	</g>
	<g clip-path="url(#SVGID_2_)">
		<text transform="matrix(1 0 0 1 115.2412 792.1279)" fill="#FFFFFF" font-family="'ProximaNova-Semibold'" font-size="32">$600</text>
	</g>
	<g clip-path="url(#SVGID_2_)">
		<defs>
			<rect id="SVGID_19_" x="-532.303" y="94.383" width="1440" height="1800"/>
		</defs>
		<clipPath id="SVGID_20_">
			<use xlink:href="#SVGID_19_"  overflow="visible"/>
		</clipPath>
		<rect x="56.197" y="728.331" clip-path="url(#SVGID_20_)" fill="#4C4C4C" width="35" height="8"/>
		<rect x="82.697" y="728.331" clip-path="url(#SVGID_20_)" fill="#4C4C4C" width="236.5" height="8"/>
		<path clip-path="url(#SVGID_20_)" fill="#4C4C4C" d="M60.197,732.331c0,2.209-1.791,4-4,4s-4-1.791-4-4s1.791-4,4-4
			S60.197,730.122,60.197,732.331"/>
		<path clip-path="url(#SVGID_20_)" fill="#4C4C4C" d="M323.197,732.331c0,2.209-1.791,4-4,4s-4-1.791-4-4s1.791-4,4-4
			S323.197,730.122,323.197,732.331"/>
		<g clip-path="url(#SVGID_20_)">
			<g>
				<defs>
					<rect id="SVGID_21_" x="52.197" y="730.333" width="14" height="8"/>
				</defs>
				<clipPath id="SVGID_22_">
					<use xlink:href="#SVGID_21_"  overflow="visible"/>
				</clipPath>
				<path clip-path="url(#SVGID_22_)" d="M56.197,730.331c-2.209,0-4,1.791-4,4s1.791,4,4,4h10v-8H56.197z"/>
			</g>
		</g>
		<path clip-path="url(#SVGID_20_)" fill="#FF0066" d="M56.197,728.331c-2.209,0-4,1.791-4,4s1.791,4,4,4h10v-8H56.197z"/>
		<g clip-path="url(#SVGID_20_)">
			<g>
				<defs>
					<rect id="SVGID_23_" x="53.197" y="725.333" width="18" height="18"/>
				</defs>
				<clipPath id="SVGID_24_">
					<use xlink:href="#SVGID_23_"  overflow="visible"/>
				</clipPath>
				<path clip-path="url(#SVGID_24_)" d="M71.197,734.331c0,4.97-4.029,9-9,9c-4.97,0-9-4.03-9-9c0-4.971,4.03-9,9-9
					C67.167,725.331,71.197,729.36,71.197,734.331"/>
			</g>
		</g>
		<path clip-path="url(#SVGID_20_)" fill="#D8D8D8" d="M70.197,732.331c0,4.97-4.029,9-9,9c-4.97,0-9-4.03-9-9c0-4.971,4.03-9,9-9
			C66.167,723.331,70.197,727.36,70.197,732.331"/>
		<rect x="167.696" y="1155.331" clip-path="url(#SVGID_20_)" fill="#CCCCCC" width="40" height="2"/>
		<rect x="-147.303" y="1155.331" clip-path="url(#SVGID_20_)" fill="#CCCCCC" width="40" height="2"/>
		<rect x="482.697" y="1155.331" clip-path="url(#SVGID_20_)" fill="#CCCCCC" width="40" height="2"/>
	</g>
	<g clip-path="url(#SVGID_2_)">
		<text transform="matrix(1 0 0 1 106.8813 1198.3311)"><tspan x="0" y="0" fill="#FF0066" font-family="'ProximaNova-Bold'" font-size="16">BUSINESS INC</tspan><tspan x="107.679" y="0" fill="#FF0066" font-family="'ProximaNova-Bold'" font-size="16">L</tspan><tspan x="115.534" y="0" fill="#FF0066" font-family="'ProximaNova-Bold'" font-size="16">UDES:</tspan></text>
	</g>
	<g clip-path="url(#SVGID_2_)">
		<text transform="matrix(1 0 0 1 -204.7666 1198.3311)"><tspan x="0" y="0" fill="#FF0066" font-family="'ProximaNova-Bold'" font-size="16">S</tspan><tspan x="9.408" y="0" fill="#FF0066" font-family="'ProximaNova-Bold'" font-size="16" letter-spacing="-1">T</tspan><tspan x="17.711" y="0" fill="#FF0066" font-family="'ProximaNova-Bold'" font-size="16">A</tspan><tspan x="28.655" y="0" fill="#FF0066" font-family="'ProximaNova-Bold'" font-size="16">R</tspan><tspan x="38.799" y="0" fill="#FF0066" font-family="'ProximaNova-Bold'" font-size="16">TUP </tspan></text>
	</g>
	<g clip-path="url(#SVGID_2_)">
		<text transform="matrix(1 0 0 1 -130.8462 1198.3311)"><tspan x="0" y="0" fill="#FF0066" font-family="'ProximaNova-Bold'" font-size="16">INC</tspan><tspan x="27.04" y="0" fill="#FF0066" font-family="'ProximaNova-Bold'" font-size="16">L</tspan><tspan x="34.896" y="0" fill="#FF0066" font-family="'ProximaNova-Bold'" font-size="16">UDES:</tspan></text>
	</g>
	<g clip-path="url(#SVGID_2_)">
		<text transform="matrix(1 0 0 1 413.3774 1198.3311)" fill="#FF0066" font-family="'ProximaNova-Bold'" font-size="16">ENTERPRISE </text>
	</g>
	<g clip-path="url(#SVGID_2_)">
		<text transform="matrix(1 0 0 1 511.0093 1198.3311)"><tspan x="0" y="0" fill="#FF0066" font-family="'ProximaNova-Bold'" font-size="16">INC</tspan><tspan x="27.039" y="0" fill="#FF0066" font-family="'ProximaNova-Bold'" font-size="16">L</tspan><tspan x="34.896" y="0" fill="#FF0066" font-family="'ProximaNova-Bold'" font-size="16">UDES:</tspan></text>
	</g>
	<g clip-path="url(#SVGID_2_)">
		<text transform="matrix(1 0 0 1 85.0498 1025.6738)"><tspan x="0" y="0" fill="#393939" font-family="'ProximaNova-Semibold'" font-size="13">CHOOSE THIS PLAN IF </tspan><tspan x="138.071" y="0" fill="#393939" font-family="'ProximaNova-Semibold'" font-size="13">Y</tspan><tspan x="145.833" y="0" fill="#393939" font-family="'ProximaNova-Semibold'" font-size="13">OU&apos;RE A...</tspan></text>
	</g>
	<g clip-path="url(#SVGID_2_)">
		<text transform="matrix(1 0 0 1 -229.9531 1025.6738)"><tspan x="0" y="0" fill="#393939" font-family="'ProximaNova-Semibold'" font-size="13">CHOOSE THIS PLAN IF </tspan><tspan x="138.071" y="0" fill="#393939" font-family="'ProximaNova-Semibold'" font-size="13">Y</tspan><tspan x="145.845" y="0" fill="#393939" font-family="'ProximaNova-Semibold'" font-size="13">OU&apos;RE A...</tspan></text>
	</g>
	<g clip-path="url(#SVGID_2_)">
		<text transform="matrix(1 0 0 1 -176.2612 1059.332)" fill="#888888" font-family="'ProximaNova-Regular'" font-size="14">Growing startup</text>
	</g>
	<g clip-path="url(#SVGID_2_)">
		<text transform="matrix(1 0 0 1 -240.0034 1095.3252)" fill="#888888" font-family="'ProximaNova-Regular'" font-size="14">Freelancer with a few rotating clients</text>
	</g>
	<g clip-path="url(#SVGID_2_)">
		<text transform="matrix(1 0 0 1 56.8247 1059.332)"><tspan x="0" y="0" fill="#888888" font-family="'ProximaNova-Regular'" font-size="14">L</tspan><tspan x="6.622" y="0" fill="#888888" font-family="'ProximaNova-Regular'" font-size="14">eading design team within a big company</tspan></text>
	</g>
	<g clip-path="url(#SVGID_2_)">
		<text transform="matrix(1 0 0 1 79.0986 1095.3252)" fill="#888888" font-family="'ProximaNova-Regular'" font-size="14">Distributed business in which visual</text>
	</g>
	<g clip-path="url(#SVGID_2_)">
		<text transform="matrix(1 0 0 1 94.2329 1113.3301)"><tspan x="0" y="0" fill="#888888" font-family="'ProximaNova-Regular'" font-size="14">collaboration is </tspan><tspan x="96.626" y="0" fill="#888888" font-family="'ProximaNova-Regular'" font-size="14">k</tspan><tspan x="103.78" y="0" fill="#888888" font-family="'ProximaNova-Regular'" font-size="14">ey to success</tspan></text>
	</g>
	<g clip-path="url(#SVGID_2_)">
		<text transform="matrix(1 0 0 1 365.0483 1059.332)" fill="#888888" font-family="'ProximaNova-Regular'" font-size="14">Business that successfully integrated MURAL</text>
	</g>
	<g clip-path="url(#SVGID_2_)">
		<text transform="matrix(1 0 0 1 409.2603 1077.3359)" fill="#888888" font-family="'ProximaNova-Regular'" font-size="14">and is ready to deploy at scale</text>
	</g>
	<g clip-path="url(#SVGID_2_)">
		<text transform="matrix(1 0 0 1 395.5405 1113.3301)" fill="#888888" font-family="'ProximaNova-Regular'" font-size="14">Design-led Fortune 1000 Company</text>
	</g>
	<g clip-path="url(#SVGID_2_)">
		<text transform="matrix(1 0 0 1 -131.4619 1074.332)" fill="#D8D8D8" font-family="'ProximaNova-Regular'" font-size="36">.</text>
	</g>
	<g clip-path="url(#SVGID_2_)">
		<text transform="matrix(1 0 0 1 183.5381 1074.332)" fill="#D8D8D8" font-family="'ProximaNova-Regular'" font-size="36">.</text>
	</g>
	<g clip-path="url(#SVGID_2_)">
		<text transform="matrix(1 0 0 1 498.5386 1092.332)" fill="#D8D8D8" font-family="'ProximaNova-Regular'" font-size="36">.</text>
	</g>
	<g clip-path="url(#SVGID_2_)">
		<text transform="matrix(1 0 0 1 400.0503 1025.6738)"><tspan x="0" y="0" fill="#393939" font-family="'ProximaNova-Semibold'" font-size="13">CHOOSE THIS PLAN IF </tspan><tspan x="138.071" y="0" fill="#393939" font-family="'ProximaNova-Semibold'" font-size="13">Y</tspan><tspan x="145.832" y="0" fill="#393939" font-family="'ProximaNova-Semibold'" font-size="13">OU&apos;RE A...</tspan></text>
	</g>
	<g clip-path="url(#SVGID_2_)">
		<defs>
			<rect id="SVGID_25_" x="-118.803" y="943.331" width="111.001" height="48"/>
		</defs>
		<clipPath id="SVGID_26_">
			<use xlink:href="#SVGID_25_"  overflow="visible"/>
		</clipPath>
		<g clip-path="url(#SVGID_26_)">
			<defs>
				<rect id="SVGID_27_" x="-125.803" y="943.331" width="810" height="48"/>
			</defs>
			<clipPath id="SVGID_28_">
				<use xlink:href="#SVGID_27_"  overflow="visible"/>
			</clipPath>
			<g transform="matrix(1 0 0 1 7.760332e-006 0)" clip-path="url(#SVGID_28_)">
				
					<image overflow="visible" width="1620" height="96" xlink:href="69D34C79.png"  transform="matrix(0.5 0 0 0.5 -125.8032 943.3311)">
				</image>
			</g>
		</g>
	</g>
	<g clip-path="url(#SVGID_2_)">
		<defs>
			<rect id="SVGID_29_" x="-4.803" y="943.331" width="499" height="48"/>
		</defs>
		<clipPath id="SVGID_30_">
			<use xlink:href="#SVGID_29_"  overflow="visible"/>
		</clipPath>
		<g clip-path="url(#SVGID_30_)">
			<defs>
				<rect id="SVGID_31_" x="-304.803" y="943.331" width="810" height="48"/>
			</defs>
			<clipPath id="SVGID_32_">
				<use xlink:href="#SVGID_31_"  overflow="visible"/>
			</clipPath>
			<g transform="matrix(1 0 0 1 1.234989e-005 0)" clip-path="url(#SVGID_32_)">
				
					<image overflow="visible" width="1620" height="96" xlink:href="69D34C7B.png"  transform="matrix(0.5 0 0 0.5 -304.8032 943.3311)">
				</image>
			</g>
		</g>
	</g>
	<g clip-path="url(#SVGID_2_)">
		<defs>
			<rect id="SVGID_33_" x="-211.067" y="771.85" width="18.861" height="18.984"/>
		</defs>
		<clipPath id="SVGID_34_">
			<use xlink:href="#SVGID_33_"  overflow="visible"/>
		</clipPath>
		<g clip-path="url(#SVGID_34_)">
			<defs>
				<rect id="SVGID_35_" x="-244.438" y="525.823" width="649" height="593"/>
			</defs>
			<clipPath id="SVGID_36_">
				<use xlink:href="#SVGID_35_"  overflow="visible"/>
			</clipPath>
			<g clip-path="url(#SVGID_36_)">
				<image overflow="visible" width="649" height="593" xlink:href="69D34C7E.png"  transform="matrix(1 0 0 1 -244.438 525.8228)">
				</image>
			</g>
		</g>
	</g>
	<g clip-path="url(#SVGID_2_)">
		<defs>
			<rect id="SVGID_37_" x="-211.067" y="802.85" width="18.861" height="18.984"/>
		</defs>
		<clipPath id="SVGID_38_">
			<use xlink:href="#SVGID_37_"  overflow="visible"/>
		</clipPath>
		<g clip-path="url(#SVGID_38_)">
			<defs>
				<rect id="SVGID_39_" x="-244.438" y="534.823" width="649" height="593"/>
			</defs>
			<clipPath id="SVGID_40_">
				<use xlink:href="#SVGID_39_"  overflow="visible"/>
			</clipPath>
			<g clip-path="url(#SVGID_40_)">
				<image overflow="visible" width="649" height="593" xlink:href="69D34C7F.png"  transform="matrix(1 0 0 1 -244.438 534.8228)">
				</image>
			</g>
		</g>
	</g>
	<g clip-path="url(#SVGID_2_)">
		<text transform="matrix(1 0 0 1 -185.7275 819.0757)" fill="#393939" font-family="'ProximaNova-Semibold'" font-size="16">$300</text>
	</g>
	<g clip-path="url(#SVGID_2_)">
		<text transform="matrix(1 0 0 1 -147.1201 819.0757)" fill="#393939" font-family="'ProximaNova-Regular'" font-size="14"> / year</text>
	</g>
	<g clip-path="url(#SVGID_2_)">
		<text transform="matrix(1 0 0 1 -185.7271 792.1279)" fill="#393939" font-family="'ProximaNova-Semibold'" font-size="32">$29</text>
	</g>
	<g clip-path="url(#SVGID_2_)">
		<text transform="matrix(1 0 0 1 -128.0957 792.1279)" fill="#393939" font-family="'ProximaNova-Regular'" font-size="16"> / month</text>
	</g>
	<g clip-path="url(#SVGID_2_)">
		<defs>
			<rect id="SVGID_41_" x="-532.303" y="94.383" width="1440" height="1800"/>
		</defs>
		<clipPath id="SVGID_42_">
			<use xlink:href="#SVGID_41_"  overflow="visible"/>
		</clipPath>
		
			<line clip-path="url(#SVGID_42_)" fill="none" stroke="#888888" stroke-miterlimit="10" x1="390.697" y1="396.128" x2="391.697" y2="396.128"/>
		
			<line clip-path="url(#SVGID_42_)" fill="none" stroke="#888888" stroke-miterlimit="10" stroke-dasharray="2.001,2.001" x1="393.698" y1="396.128" x2="564.792" y2="396.128"/>
		
			<line clip-path="url(#SVGID_42_)" fill="none" stroke="#888888" stroke-miterlimit="10" x1="565.792" y1="396.128" x2="566.792" y2="396.128"/>
	</g>
	<g clip-path="url(#SVGID_2_)">
		<text transform="matrix(1 0 0 1 441.7935 1271.4063)"><tspan x="0" y="0" fill="#393939" font-family="'ProximaNova-Semibold'" font-size="16">Unlimited </tspan><tspan x="72.959" y="0" fill="#393939" font-family="'ProximaNova-Semibold'" font-size="16">R</tspan><tspan x="82.559" y="0" fill="#393939" font-family="'ProximaNova-Semibold'" font-size="16">ooms</tspan></text>
	</g>
	<g clip-path="url(#SVGID_2_)">
		<text transform="matrix(1 0 0 1 438.2729 1315.4063)"><tspan x="0" y="0" fill="#393939" font-family="'ProximaNova-Semibold'" font-size="16">Unlimited </tspan><tspan x="72.959" y="0" fill="#393939" font-family="'ProximaNova-Semibold'" font-size="16">S</tspan><tspan x="82.239" y="0" fill="#393939" font-family="'ProximaNova-Semibold'" font-size="16">torage</tspan></text>
	</g>
	<g clip-path="url(#SVGID_2_)">
		<text transform="matrix(1 0 0 1 427.105 1359.4063)"><tspan x="0" y="0" fill="#393939" font-family="'ProximaNova-Semibold'" font-size="16">Visual Thinking </tspan><tspan x="113.887" y="0" fill="#393939" font-family="'ProximaNova-Semibold'" font-size="16" letter-spacing="-1">T</tspan><tspan x="121.438" y="0" fill="#393939" font-family="'ProximaNova-Semibold'" font-size="16">ools</tspan></text>
	</g>
	<g clip-path="url(#SVGID_2_)">
		<text transform="matrix(1 0 0 1 433.8569 1403.4063)"><tspan x="0" y="0" fill="#393939" font-family="'ProximaNova-Semibold'" font-size="16">Collaboration </tspan><tspan x="100.382" y="0" fill="#393939" font-family="'ProximaNova-Semibold'" font-size="16" letter-spacing="-1">T</tspan><tspan x="107.934" y="0" fill="#393939" font-family="'ProximaNova-Semibold'" font-size="16">ools</tspan></text>
	</g>
	<g clip-path="url(#SVGID_2_)">
		<text transform="matrix(1 0 0 1 374.0815 1447.4063)" fill="#393939" font-family="'ProximaNova-Semibold'" font-size="16">On-Call Customer Success Manager</text>
	</g>
	<g clip-path="url(#SVGID_2_)">
		<text transform="matrix(1 0 0 1 449.0415 1491.4063)"><tspan x="0" y="0" fill="#393939" font-family="'ProximaNova-Semibold'" font-size="16">Multiple </tspan><tspan x="61.407" y="0" fill="#393939" font-family="'ProximaNova-Semibold'" font-size="16" letter-spacing="-1">T</tspan><tspan x="68.959" y="0" fill="#393939" font-family="'ProximaNova-Semibold'" font-size="16">eams</tspan></text>
	</g>
	<g clip-path="url(#SVGID_2_)">
		<text transform="matrix(1 0 0 1 436.5298 1535.4063)"><tspan x="0" y="0" fill="#393939" font-family="'ProximaNova-Semibold'" font-size="16">Custom </tspan><tspan x="59.295" y="0" fill="#393939" font-family="'ProximaNova-Semibold'" font-size="16" letter-spacing="-1">T</tspan><tspan x="66.863" y="0" fill="#393939" font-family="'ProximaNova-Semibold'" font-size="16">emplates</tspan></text>
	</g>
	<g clip-path="url(#SVGID_2_)">
		<text transform="matrix(1 0 0 1 446.2573 1579.4063)" fill="#393939" font-family="'ProximaNova-Semibold'" font-size="16">Guest Accounts</text>
	</g>
	<g clip-path="url(#SVGID_2_)">
		<text transform="matrix(1 0 0 1 410.8335 1623.4063)" fill="#393939" font-family="'ProximaNova-Semibold'" font-size="16">Enterprise-Grade Security</text>
	</g>
	<g clip-path="url(#SVGID_2_)">
		<text transform="matrix(1 0 0 1 396.5298 1667.4063)" fill="#393939" font-family="'ProximaNova-Semibold'" font-size="16">Admin Dashboard &amp; Analytics</text>
	</g>
	<g clip-path="url(#SVGID_2_)">
		<text transform="matrix(1 0 0 1 385.6011 1711.4063)"><tspan x="0" y="0" fill="#393939" font-family="'ProximaNova-Semibold'" font-size="16">Single Sign-On </tspan><tspan x="110.639" y="0" fill="#393939" font-family="'ProximaNova-Semibold'" font-size="16">S</tspan><tspan x="119.982" y="0" fill="#393939" font-family="'ProximaNova-Semibold'" font-size="16">AML Integration</tspan></text>
	</g>
	<g clip-path="url(#SVGID_2_)">
		<text transform="matrix(1 0 0 1 126.8174 1271.4063)"><tspan x="0" y="0" fill="#393939" font-family="'ProximaNova-Semibold'" font-size="16">Unlimited </tspan><tspan x="72.959" y="0" fill="#393939" font-family="'ProximaNova-Semibold'" font-size="16">R</tspan><tspan x="82.559" y="0" fill="#393939" font-family="'ProximaNova-Semibold'" font-size="16">ooms</tspan></text>
	</g>
	<g clip-path="url(#SVGID_2_)">
		<text transform="matrix(1 0 0 1 123.2974 1315.4063)"><tspan x="0" y="0" fill="#393939" font-family="'ProximaNova-Semibold'" font-size="16">Unlimited </tspan><tspan x="72.959" y="0" fill="#393939" font-family="'ProximaNova-Semibold'" font-size="16">S</tspan><tspan x="82.239" y="0" fill="#393939" font-family="'ProximaNova-Semibold'" font-size="16">torage</tspan></text>
	</g>
	<g clip-path="url(#SVGID_2_)">
		<text transform="matrix(1 0 0 1 112.1294 1359.4063)"><tspan x="0" y="0" fill="#393939" font-family="'ProximaNova-Semibold'" font-size="16">Visual Thinking </tspan><tspan x="113.886" y="0" fill="#393939" font-family="'ProximaNova-Semibold'" font-size="16" letter-spacing="-1">T</tspan><tspan x="121.454" y="0" fill="#393939" font-family="'ProximaNova-Semibold'" font-size="16">ools</tspan></text>
	</g>
	<g clip-path="url(#SVGID_2_)">
		<text transform="matrix(1 0 0 1 118.8813 1403.4063)"><tspan x="0" y="0" fill="#393939" font-family="'ProximaNova-Semibold'" font-size="16">Collaboration </tspan><tspan x="100.382" y="0" fill="#393939" font-family="'ProximaNova-Semibold'" font-size="16" letter-spacing="-1">T</tspan><tspan x="107.95" y="0" fill="#393939" font-family="'ProximaNova-Semibold'" font-size="16">ools</tspan></text>
	</g>
	<g clip-path="url(#SVGID_2_)">
		<text transform="matrix(1 0 0 1 131.7612 1447.4063)" fill="#393939" font-family="'ProximaNova-Semibold'" font-size="16">Priority Support</text>
	</g>
	<g clip-path="url(#SVGID_2_)">
		<text transform="matrix(1 0 0 1 122.7695 1491.4063)"><tspan x="0" y="0" fill="#393939" font-family="'ProximaNova-Semibold'" font-size="16">L</tspan><tspan x="7.952" y="0" fill="#393939" font-family="'ProximaNova-Semibold'" font-size="16">arger </tspan><tspan x="49.983" y="0" fill="#393939" font-family="'ProximaNova-Semibold'" font-size="16" letter-spacing="-1">T</tspan><tspan x="57.535" y="0" fill="#393939" font-family="'ProximaNova-Semibold'" font-size="16">eam Sizes</tspan></text>
	</g>
	<g clip-path="url(#SVGID_2_)">
		<text transform="matrix(1 0 0 1 121.5376 1535.4063)"><tspan x="0" y="0" fill="#393939" font-family="'ProximaNova-Semibold'" font-size="16">Custom </tspan><tspan x="59.295" y="0" fill="#393939" font-family="'ProximaNova-Semibold'" font-size="16" letter-spacing="-1">T</tspan><tspan x="66.863" y="0" fill="#393939" font-family="'ProximaNova-Semibold'" font-size="16">emplates</tspan></text>
	</g>
	<g clip-path="url(#SVGID_2_)">
		<text transform="matrix(1 0 0 1 131.2656 1579.4063)" fill="#393939" font-family="'ProximaNova-Semibold'" font-size="16">Guest Accounts</text>
	</g>
	<g clip-path="url(#SVGID_2_)">
		<text transform="matrix(1 0 0 1 181.0732 1623.4063)" fill="#393939" font-family="'ProximaNova-Semibold'" font-size="16">—</text>
	</g>
	<g clip-path="url(#SVGID_2_)">
		<text transform="matrix(1 0 0 1 181.0732 1667.4063)" fill="#393939" font-family="'ProximaNova-Semibold'" font-size="16">—</text>
	</g>
	<g clip-path="url(#SVGID_2_)">
		<text transform="matrix(1 0 0 1 181.0732 1711.4063)" fill="#393939" font-family="'ProximaNova-Semibold'" font-size="16">—</text>
	</g>
	<g clip-path="url(#SVGID_2_)">
		<text transform="matrix(1 0 0 1 -187.8384 1271.4063)"><tspan x="0" y="0" fill="#393939" font-family="'ProximaNova-Semibold'" font-size="16"> 5 Project </tspan><tspan x="72.303" y="0" fill="#393939" font-family="'ProximaNova-Semibold'" font-size="16">R</tspan><tspan x="81.902" y="0" fill="#393939" font-family="'ProximaNova-Semibold'" font-size="16">ooms</tspan></text>
	</g>
	<g clip-path="url(#SVGID_2_)">
		<text transform="matrix(1 0 0 1 -172.1743 1315.4063)"><tspan x="0" y="0" fill="#393939" font-family="'ProximaNova-Semibold'" font-size="16">xGB </tspan><tspan x="33.936" y="0" fill="#393939" font-family="'ProximaNova-Semibold'" font-size="16">S</tspan><tspan x="43.199" y="0" fill="#393939" font-family="'ProximaNova-Semibold'" font-size="16">torage</tspan></text>
	</g>
	<g clip-path="url(#SVGID_2_)">
		<text transform="matrix(1 0 0 1 -202.8628 1359.4063)"><tspan x="0" y="0" fill="#393939" font-family="'ProximaNova-Semibold'" font-size="16">Visual Thinking </tspan><tspan x="113.886" y="0" fill="#393939" font-family="'ProximaNova-Semibold'" font-size="16" letter-spacing="-1">T</tspan><tspan x="121.454" y="0" fill="#393939" font-family="'ProximaNova-Semibold'" font-size="16">ools</tspan></text>
	</g>
	<g clip-path="url(#SVGID_2_)">
		<text transform="matrix(1 0 0 1 -196.1104 1403.4063)"><tspan x="0" y="0" fill="#393939" font-family="'ProximaNova-Semibold'" font-size="16">Collaboration </tspan><tspan x="100.382" y="0" fill="#393939" font-family="'ProximaNova-Semibold'" font-size="16" letter-spacing="-1">T</tspan><tspan x="107.95" y="0" fill="#393939" font-family="'ProximaNova-Semibold'" font-size="16">ools</tspan></text>
	</g>
	<g clip-path="url(#SVGID_2_)">
		<text transform="matrix(1 0 0 1 -200.1743 1447.4063)" fill="#393939" font-family="'ProximaNova-Semibold'" font-size="16">Self-Service Support</text>
	</g>
	<g clip-path="url(#SVGID_2_)">
		<text transform="matrix(1 0 0 1 -133.9185 1491.4063)" fill="#393939" font-family="'ProximaNova-Semibold'" font-size="16">—</text>
	</g>
	<g clip-path="url(#SVGID_2_)">
		<text transform="matrix(1 0 0 1 -133.9185 1535.4063)" fill="#393939" font-family="'ProximaNova-Semibold'" font-size="16">—</text>
	</g>
	<g clip-path="url(#SVGID_2_)">
		<text transform="matrix(1 0 0 1 -133.9185 1579.4063)" fill="#393939" font-family="'ProximaNova-Semibold'" font-size="16">—</text>
	</g>
	<g clip-path="url(#SVGID_2_)">
		<text transform="matrix(1 0 0 1 -133.9185 1623.4063)" fill="#393939" font-family="'ProximaNova-Semibold'" font-size="16">—</text>
	</g>
	<g clip-path="url(#SVGID_2_)">
		<text transform="matrix(1 0 0 1 -133.9185 1667.4063)" fill="#393939" font-family="'ProximaNova-Semibold'" font-size="16">—</text>
	</g>
	<g clip-path="url(#SVGID_2_)">
		<text transform="matrix(1 0 0 1 -133.9185 1711.4063)" fill="#393939" font-family="'ProximaNova-Semibold'" font-size="16">—</text>
	</g>
	<g clip-path="url(#SVGID_2_)">
		<defs>
			<rect id="SVGID_43_" x="-532.303" y="94.383" width="1440" height="1800"/>
		</defs>
		<clipPath id="SVGID_44_">
			<use xlink:href="#SVGID_43_"  overflow="visible"/>
		</clipPath>
		<rect x="32.697" y="1034.331" clip-path="url(#SVGID_44_)" fill="#E2E2E2" width="1" height="730"/>
		<rect x="341.697" y="1034.331" clip-path="url(#SVGID_44_)" fill="#E2E2E2" width="1" height="730"/>
		<path clip-path="url(#SVGID_44_)" fill="#FF0063" d="M276.487,159.71c0,0.358-0.293,0.65-0.649,0.65h-31.583
			c-0.358,0-0.651-0.292-0.651-0.65v-31.582c0-0.358,0.293-0.651,0.651-0.651h31.583c0.356,0,0.649,0.293,0.649,0.651V159.71z"/>
		<path clip-path="url(#SVGID_44_)" fill="#FF0063" d="M131.79,159.642c0,0.358-0.293,0.65-0.65,0.65H99.557
			c-0.358,0-0.651-0.292-0.651-0.65V128.06c0-0.358,0.293-0.651,0.651-0.651h31.583c0.357,0,0.65,0.293,0.65,0.651V159.642z"/>
		<path clip-path="url(#SVGID_44_)" fill="#FF0063" d="M203.961,128.349c0-0.531-0.435-0.966-0.966-0.966h-30.951
			c-0.532,0-0.967,0.435-0.967,0.966v30.95c0,0.532,0.435,0.967,0.967,0.967h23.05l8.866-8.867V128.349z"/>
		<g opacity="0.3" clip-path="url(#SVGID_44_)">
			<g>
				<defs>
					<rect id="SVGID_45_" x="186.782" y="151.403" width="17.18" height="8.86"/>
				</defs>
				<clipPath id="SVGID_46_">
					<use xlink:href="#SVGID_45_"  overflow="visible"/>
				</clipPath>
				<g clip-path="url(#SVGID_46_)">
					<defs>
						<rect id="SVGID_47_" x="186.782" y="151.399" width="17.18" height="8.867"/>
					</defs>
					<clipPath id="SVGID_48_">
						<use xlink:href="#SVGID_47_"  overflow="visible"/>
					</clipPath>
					<polygon clip-path="url(#SVGID_48_)" points="195.327,151.719 186.781,160.266 195.094,160.266 203.961,151.399 					"/>
				</g>
			</g>
		</g>
		<path clip-path="url(#SVGID_44_)" fill="#FF5BA3" d="M203.961,151.399h-7.9c-0.531,0-0.966,0.435-0.966,0.966v7.901
			L203.961,151.399z"/>
		<path clip-path="url(#SVGID_44_)" fill="#FF0063" d="M167.877,159.732c0,0.358-0.293,0.65-0.65,0.65h-31.583
			c-0.358,0-0.651-0.292-0.651-0.65V128.15c0-0.358,0.293-0.651,0.651-0.651h31.583c0.357,0,0.65,0.293,0.65,0.651V159.732z"/>
		<path clip-path="url(#SVGID_44_)" fill="#FF0063" d="M240.069,159.732c0,0.358-0.293,0.65-0.649,0.65h-31.583
			c-0.358,0-0.651-0.292-0.651-0.65V128.15c0-0.358,0.293-0.651,0.651-0.651h31.583c0.356,0,0.649,0.293,0.649,0.651V159.732z"/>
		<path clip-path="url(#SVGID_44_)" fill="#FFFFFF" d="M121.636,138.975l0.003,9.914c0,0.196-0.159,0.356-0.355,0.356h-2.572
			c-0.196,0-0.355-0.158-0.355-0.354c0.001-1.162,0.003-4.798,0.003-4.943c-1.057,1.45-2.096,2.876-3.177,4.359
			c-0.212-0.28-3.098-4.328-3.254-4.586c0,0.185-0.008,3.997-0.011,5.189c-0.001,0.195-0.159,0.352-0.355,0.352h-2.489
			c-0.196,0-0.355-0.158-0.355-0.354l-0.005-9.931c0-0.196,0.159-0.355,0.355-0.355l2.285-0.002c0.114,0,0.221,0.055,0.288,0.146
			l3.512,4.829l3.55-4.83c0.067-0.091,0.174-0.145,0.287-0.145h2.29C121.477,138.62,121.636,138.779,121.636,138.975"/>
		<path clip-path="url(#SVGID_44_)" fill="#FFFFFF" d="M187.898,138.501c0.496,0,1.202,0.109,1.474,0.176
			c1.069,0.262,1.944,0.819,2.531,1.762c0.94,1.51,0.756,3.727-0.885,4.839c-0.174,0.118-0.343,0.243-0.552,0.39
			c0.048,0.085,1.543,2.404,2.061,3.209c0.076,0.117-0.008,0.271-0.147,0.271l-3.272-0.003c-0.132,0-0.255-0.067-0.326-0.178
			l-1.737-2.711h-1.385l-0.001,2.496c-0.001,0.214-0.174,0.387-0.387,0.387l-2.447,0.001c-0.213,0.001-0.387-0.173-0.387-0.387
			l-0.004-9.866c0-0.213,0.173-0.387,0.387-0.387H187.898z M185.68,143.664c0,0,1.544,0.005,2.241,0.005
			c0.189,0,0.413-0.051,0.586-0.137c0.42-0.208,0.641-0.615,0.641-1.088c0-0.529-0.198-0.791-0.605-1.026
			c-0.237-0.138-0.472-0.172-0.725-0.172c-0.712,0-1.406,0.002-2.136,0.002C185.682,142.065,185.68,143.664,185.68,143.664"/>
		<path clip-path="url(#SVGID_44_)" fill="#FFFFFF" d="M156.627,138.523c0.212,0,0.384,0.171,0.384,0.383
			c0,1.063,0.001,4.073,0.001,5.549c-0.039,1.297-0.458,2.489-1.407,3.431c-0.787,0.783-1.768,1.177-2.849,1.368
			c-0.661,0.117-1.328,0.126-1.987,0.075c-1.39-0.105-2.661-0.526-3.647-1.579c-0.661-0.704-1.043-1.551-1.184-2.496
			c-0.076-0.505-0.095-1.021-0.099-1.532c-0.01-1.239-0.002-3.84,0.002-4.817c0.001-0.211,0.173-0.382,0.384-0.382h2.428
			c0.213,0,0.385,0.172,0.385,0.384c-0.001,0.972-0.001,3.542,0.012,4.766c0.005,0.556,0.047,1.116,0.265,1.64
			c0.184,0.444,0.467,0.791,0.905,1.03c0.582,0.318,1.205,0.324,1.811,0.222c0.825-0.14,1.378-0.661,1.595-1.483
			c0.077-0.288,0.114-0.594,0.116-0.893c0-1.364,0.003-4.246,0.004-5.283c0-0.213,0.172-0.383,0.384-0.383H156.627z"/>
		<path clip-path="url(#SVGID_44_)" fill="#FFFFFF" d="M225.114,138.618l4.735,10.301c0.072,0.158-0.043,0.337-0.216,0.337
			l-2.864,0.007c-0.19,0.001-0.362-0.114-0.436-0.289l-0.443-1.068h-4.59l-0.462,1.071c-0.073,0.172-0.244,0.284-0.432,0.284
			l-2.864-0.005c-0.174,0-0.289-0.181-0.216-0.338l4.791-10.3H225.114z M224.702,145.302l-1.111-2.942l-1.122,2.942H224.702z"/>
		<path clip-path="url(#SVGID_44_)" fill="#FFFFFF" d="M259.194,139.013l0.005,7.499l4.503,0.005c0.217,0,0.393,0.175,0.393,0.393
			v1.951c0,0.217-0.176,0.394-0.393,0.394l-7.32-0.005c-0.217,0-0.394-0.176-0.394-0.393l0.005-9.843
			c0-0.217,0.176-0.393,0.393-0.393h2.416C259.018,138.62,259.194,138.796,259.194,139.013"/>
	</g>
</g>
<path fill="#FF0063" d="M177.581,32.301c0,0.358-0.293,0.65-0.649,0.65h-31.583c-0.358,0-0.651-0.292-0.651-0.65V0.719
	c0-0.358,0.293-0.651,0.651-0.651h31.583c0.356,0,0.649,0.293,0.649,0.651V32.301z"/>
<path fill="#FF0063" d="M32.884,32.233c0,0.358-0.293,0.65-0.65,0.65H0.651C0.293,32.883,0,32.591,0,32.233V0.651
	C0,0.293,0.293,0,0.651,0h31.583c0.357,0,0.65,0.293,0.65,0.651V32.233z"/>
<path fill="#FF0063" d="M105.055,0.94c0-0.531-0.435-0.966-0.966-0.966H73.139c-0.532,0-0.967,0.435-0.967,0.966v30.95
	c0,0.532,0.435,0.967,0.967,0.967h23.05l8.866-8.867V0.94z"/>
<g opacity="0.3">
	<g>
		<defs>
			<rect id="SVGID_49_" x="87.875" y="23.994" width="17.18" height="8.86"/>
		</defs>
		<clipPath id="SVGID_50_">
			<use xlink:href="#SVGID_49_"  overflow="visible"/>
		</clipPath>
		<g clip-path="url(#SVGID_50_)">
			<defs>
				<rect id="SVGID_51_" x="87.875" y="23.99" width="17.18" height="8.867"/>
			</defs>
			<clipPath id="SVGID_52_">
				<use xlink:href="#SVGID_51_"  overflow="visible"/>
			</clipPath>
			<polygon clip-path="url(#SVGID_52_)" points="96.42,24.31 87.875,32.857 96.188,32.857 105.055,23.99 			"/>
		</g>
	</g>
</g>
<path fill="#FF5BA3" d="M105.055,23.99h-7.9c-0.531,0-0.966,0.435-0.966,0.966v7.901L105.055,23.99z"/>
<path fill="#FF0063" d="M68.971,32.323c0,0.358-0.293,0.65-0.65,0.65H36.738c-0.358,0-0.651-0.292-0.651-0.65V0.741
	c0-0.358,0.293-0.651,0.651-0.651h31.583c0.357,0,0.65,0.293,0.65,0.651V32.323z"/>
<path fill="#FF0063" d="M141.163,32.323c0,0.358-0.293,0.65-0.649,0.65H108.93c-0.358,0-0.651-0.292-0.651-0.65V0.741
	c0-0.358,0.293-0.651,0.651-0.651h31.583c0.356,0,0.649,0.293,0.649,0.651V32.323z"/>
<path fill="#FFFFFF" d="M22.73,11.566l0.003,9.914c0,0.196-0.159,0.356-0.355,0.356h-2.572c-0.196,0-0.355-0.158-0.355-0.354
	c0.001-1.162,0.003-4.798,0.003-4.943c-1.057,1.45-2.096,2.876-3.177,4.359c-0.212-0.28-3.098-4.328-3.254-4.586
	c0,0.185-0.008,3.997-0.011,5.189c-0.001,0.195-0.159,0.352-0.355,0.352h-2.489c-0.196,0-0.355-0.158-0.355-0.354l-0.005-9.931
	c0-0.196,0.159-0.355,0.355-0.355l2.285-0.002c0.114,0,0.221,0.055,0.288,0.146l3.512,4.829l3.55-4.83
	c0.067-0.091,0.174-0.145,0.287-0.145h2.29C22.571,11.211,22.73,11.37,22.73,11.566"/>
<path fill="#FFFFFF" d="M88.992,11.092c0.496,0,1.202,0.109,1.474,0.176c1.069,0.262,1.944,0.819,2.531,1.762
	c0.94,1.51,0.756,3.727-0.885,4.839c-0.174,0.118-0.343,0.243-0.552,0.39c0.048,0.085,1.543,2.404,2.061,3.209
	c0.076,0.117-0.008,0.271-0.147,0.271l-3.272-0.003c-0.132,0-0.255-0.067-0.326-0.178l-1.737-2.711h-1.385l-0.001,2.496
	c-0.001,0.214-0.174,0.387-0.387,0.387l-2.447,0.001c-0.213,0.001-0.387-0.173-0.387-0.387l-0.004-9.866
	c0-0.213,0.173-0.387,0.387-0.387H88.992z M86.774,16.254c0,0,1.544,0.005,2.241,0.005c0.189,0,0.413-0.051,0.586-0.137
	c0.42-0.208,0.641-0.615,0.641-1.088c0-0.529-0.198-0.791-0.605-1.026c-0.237-0.138-0.472-0.172-0.725-0.172
	c-0.712,0-1.406,0.002-2.136,0.002C86.776,14.656,86.774,16.254,86.774,16.254"/>
<path fill="#FFFFFF" d="M57.721,11.114c0.212,0,0.384,0.171,0.384,0.383c0,1.063,0.001,4.073,0.001,5.549
	c-0.039,1.297-0.458,2.489-1.407,3.431c-0.787,0.783-1.768,1.177-2.849,1.368c-0.661,0.117-1.328,0.126-1.987,0.075
	c-1.39-0.105-2.661-0.526-3.647-1.579c-0.661-0.704-1.043-1.551-1.184-2.496c-0.076-0.505-0.095-1.021-0.099-1.532
	c-0.01-1.239-0.002-3.84,0.002-4.817c0.001-0.211,0.173-0.382,0.384-0.382h2.428c0.213,0,0.385,0.172,0.385,0.384
	c-0.001,0.972-0.001,3.542,0.012,4.766c0.005,0.556,0.047,1.116,0.265,1.64c0.184,0.444,0.467,0.791,0.905,1.03
	c0.582,0.318,1.205,0.324,1.811,0.222c0.825-0.14,1.378-0.661,1.595-1.483c0.077-0.288,0.114-0.594,0.116-0.893
	c0-1.364,0.003-4.246,0.004-5.283c0-0.213,0.172-0.383,0.384-0.383H57.721z"/>
<path fill="#FFFFFF" d="M126.208,11.209l4.735,10.301c0.072,0.158-0.043,0.337-0.216,0.337l-2.864,0.007
	c-0.19,0.001-0.362-0.114-0.436-0.289l-0.443-1.068h-4.59l-0.462,1.071c-0.073,0.172-0.244,0.284-0.432,0.284l-2.864-0.005
	c-0.174,0-0.289-0.181-0.216-0.338l4.791-10.3H126.208z M125.795,17.893l-1.111-2.942l-1.122,2.942H125.795z"/>
<path fill="#FFFFFF" d="M160.288,11.604l0.005,7.499l4.503,0.005c0.217,0,0.393,0.175,0.393,0.393v1.951
	c0,0.217-0.176,0.394-0.393,0.394l-7.32-0.005c-0.217,0-0.394-0.176-0.394-0.393l0.005-9.843c0-0.217,0.176-0.393,0.393-0.393h2.416
	C160.112,11.211,160.288,11.387,160.288,11.604"/>
</svg>
